<?xml version="1.0" encoding="UTF-8"?>
<svg id="Layer_2" data-name="Layer 2" xmlns="http://www.w3.org/2000/svg" viewBox="0 0 254.19 45.16">
  <defs>
    <style>
      .cls-1 {
        fill: #2563eb;
      }

      .cls-2 {
        fill: #0f172a;
      }
    </style>
  </defs>
  <g id="Layer_16" data-name="Layer 16">
    <g>
      <path class="cls-2" d="m111.84,21.57v18.31h3.4c.87,0,1.57-.7,1.57-1.57v-18.31h-3.4c-.87,0-1.57.7-1.57,1.57Z"/>
      <path class="cls-2" d="m135.58,23.97c.36-.45.56-1.01.56-1.59v-2.37h-15.19c-.62,0-1.12.5-1.12,1.12v2.89h10.28l-10.03,12.14c-.38.46-.58,1.03-.58,1.62v2.1h15.87c.62,0,1.12-.5,1.12-1.12v-2.89h-10.47l9.56-11.9Z"/>
      <path class="cls-2" d="m154.14,22.16c-.88-.82-1.91-1.43-3.05-1.82-1.14-.39-2.35-.59-3.6-.59-1.97,0-3.7.44-5.16,1.31-1.46.87-2.6,2.09-3.39,3.62-.79,1.53-1.2,3.34-1.2,5.38s.41,3.88,1.21,5.4c.81,1.52,1.97,2.72,3.47,3.56,1.49.84,3.3,1.26,5.38,1.26,1.53,0,2.92-.22,4.12-.67,1.2-.44,2.22-1.07,3.02-1.87.8-.8,1.38-1.75,1.71-2.81l.03-.1-4.57-.9-.03.08c-.2.54-.51.99-.91,1.36-.41.37-.89.65-1.44.84-.56.19-1.18.29-1.87.29-1.03,0-1.95-.22-2.73-.64-.77-.42-1.38-1.06-1.81-1.9-.37-.71-.58-1.6-.63-2.64h14.28v-1.54c0-1.73-.25-3.24-.75-4.5-.5-1.26-1.2-2.31-2.08-3.13Zm-11.43,5.86c.07-.7.25-1.34.53-1.91.38-.77.93-1.4,1.65-1.86.72-.46,1.6-.7,2.63-.7s1.9.23,2.58.69c.68.46,1.21,1.1,1.55,1.92.23.55.39,1.18.47,1.87h-9.4Z"/>
      <path class="cls-2" d="m165.64,20.68c-.91.61-1.57,1.49-1.94,2.62h-.06v-3.29h-3.52c-.63,0-1.13.51-1.13,1.13v18.74h3.66c.63,0,1.13-.51,1.13-1.13v-10.55c0-.81.2-1.54.58-2.16.38-.62.93-1.12,1.61-1.47.69-.36,1.47-.54,2.33-.54.42,0,.86.02,1.29.07.44.05.75.1.94.15l.12.04-1.84-4.56c-1.19,0-2.26.32-3.19.94Z"/>
      <path class="cls-2" d="m104.56,14.12l-4.89,18.09-5.06-18.1c-.23-.81-.96-1.37-1.81-1.37h-1.98c-.85,0-1.59.57-1.81,1.39l-4.89,18.09-5.06-18.1c-.23-.81-.96-1.37-1.81-1.37h-3.74l7.54,25.8c.23.8.97,1.35,1.8,1.35h2.24c.83,0,1.57-.55,1.8-1.35l4.86-16.6,4.85,16.6c.23.8.97,1.35,1.8,1.35h2.24c.83,0,1.57-.55,1.8-1.35l7.55-25.8h-3.62c-.85,0-1.59.57-1.81,1.39Z"/>
      <path class="cls-2" d="m114.32,11.99c-1.56,0-2.82,1.26-2.82,2.82s1.26,2.82,2.82,2.82,2.82-1.26,2.82-2.82-1.26-2.82-2.82-2.82Z"/>
      <path class="cls-2" d="m189.56,14.48l-6.94,20.14-7.18-20.16c-.27-.75-.98-1.26-1.78-1.26h-4.17l9.63,25.84c.28.74.98,1.23,1.78,1.23h3.06c.79,0,1.5-.49,1.78-1.23l9.65-25.84h-4.01c-.81,0-1.53.51-1.79,1.28Z"/>
      <path class="cls-2" d="m197.01,21.88v18.39h3.48c.82,0,1.48-.66,1.48-1.48v-18.39h-3.48c-.82,0-1.48.66-1.48,1.48Z"/>
      <path class="cls-2" d="m220.47,22.55c-.88-.82-1.91-1.43-3.04-1.82-1.14-.39-2.35-.59-3.6-.59-1.97,0-3.7.44-5.16,1.31-1.46.87-2.6,2.09-3.4,3.62-.79,1.53-1.19,3.34-1.19,5.38s.41,3.88,1.21,5.4c.81,1.52,1.97,2.72,3.47,3.56,1.49.84,3.3,1.26,5.38,1.26,1.53,0,2.92-.22,4.12-.67,1.2-.44,2.22-1.07,3.02-1.87.8-.8,1.38-1.75,1.71-2.81l.03-.1-4.57-.9-.03.08c-.2.54-.51.99-.91,1.36-.4.37-.89.65-1.44.84-.56.19-1.18.29-1.87.29-1.03,0-1.95-.22-2.73-.64-.77-.42-1.39-1.06-1.81-1.9-.37-.71-.58-1.6-.63-2.64h14.28v-1.54c0-1.73-.25-3.24-.75-4.5-.5-1.26-1.2-2.31-2.08-3.13Zm-11.43,5.86c.07-.7.25-1.34.53-1.91.38-.77.93-1.4,1.65-1.86.71-.46,1.6-.7,2.63-.7s1.9.23,2.58.69c.68.46,1.21,1.1,1.55,1.92.23.55.39,1.17.47,1.87h-9.4Z"/>
      <path class="cls-2" d="m250.42,20.39c-.61,0-1.14.4-1.32.98l-4.21,13.83-3.65-13.78c-.16-.6-.71-1.03-1.33-1.03h-2.8c-.62,0-1.17.42-1.33,1.01l-3.78,13.79-4.12-13.81c-.17-.58-.71-.99-1.32-.99h-3.69l6.31,19.15c.19.57.71.95,1.31.95h2.92c.62,0,1.17-.41,1.33-1.01l3.73-13.58,3.79,13.58c.17.6.71,1.01,1.33,1.01h2.87c.59,0,1.12-.38,1.31-.94l6.41-19.15h-3.77Z"/>
      <path class="cls-2" d="m199.49,12.38c-1.56,0-2.82,1.26-2.82,2.82s1.26,2.82,2.82,2.82,2.82-1.26,2.82-2.82-1.26-2.82-2.82-2.82Z"/>
    </g>
    <g>
      <path class="cls-1" d="m24.69,37.55c-4.59-7.84-9.3-15.79-13.86-23.47,0,0-.39-.66-.53-.9-.56-.97-1.09-1.89-1.76-2.65-.94-1.06-2.3-1.67-3.75-1.67-1.09,0-2.16.35-3.01.99-1.95,1.46-2.33,4.12-.95,6.47,3.64,6.17,7.28,12.35,10.91,18.53.73,1.24,1.45,2.48,2.17,3.73.77,1.33,1.55,2.67,2.33,4,.95,1.62,2.62,2.59,4.44,2.59.45,0,.9-.06,1.34-.18,2.15-.59,3.54-2.4,3.55-4.63v-.61c-.02-.07-.04-.14-.07-.21-.24-.72-.47-1.41-.8-1.99Z"/>
      <path class="cls-1" d="m64.35.84l-20.19,28.58c-.86.86-1.67,1.04-2.2,1.04-.55,0-1.6-.21-2.41-1.59l-1.9-3.24c-2.72-4.64-5.44-9.28-8.13-13.94-1-1.73-2.81-2.81-4.74-2.81-.87,0-1.73.23-2.48.66-1.24.71-1.75,1.83-1.95,2.63-.36,1.39-.1,2.99.69,4.28,4.18,6.82,8.31,13.83,12.3,20.6l2.74,4.65c1.27,2.14,3.09,3.27,5.58,3.45,2.58-.04,4.45-1.03,5.71-3,.53-.83,1.06-1.67,1.59-2.51L67.63,2.67c1.06-2.51-1.91-3.53-3.28-1.83Z"/>
    </g>
  </g>
</svg>