<?xml version="1.0" encoding="UTF-8"?>
<svg xmlns="http://www.w3.org/2000/svg" viewBox="0 0 80 80" role="img" aria-label="WizerView">
  <rect width="80" height="80" rx="18" fill="#2563EB"/>
  <g fill="#FFFFFF" transform="translate(2.004 14.710) scale(1.120000)">
    <path d="m24.69,37.55c-4.59-7.84-9.3-15.79-13.86-23.47,0,0-.39-.66-.53-.9-.56-.97-1.09-1.89-1.76-2.65-.94-1.06-2.3-1.67-3.75-1.67-1.09,0-2.16.35-3.01.99-1.95,1.46-2.33,4.12-.95,6.47,3.64,6.17,7.28,12.35,10.91,18.53.73,1.24,1.45,2.48,2.17,3.73.77,1.33,1.55,2.67,2.33,4,.95,1.62,2.62,2.59,4.44,2.59.45,0,.9-.06,1.34-.18,2.15-.59,3.54-2.4,3.55-4.63v-.61c-.02-.07-.04-.14-.07-.21-.24-.72-.47-1.41-.8-1.99Z"/>
<path d="m64.35.84l-20.19,28.58c-.86.86-1.67,1.04-2.2,1.04-.55,0-1.6-.21-2.41-1.59l-1.9-3.24c-2.72-4.64-5.44-9.28-8.13-13.94-1-1.73-2.81-2.81-4.74-2.81-.87,0-1.73.23-2.48.66-1.24.71-1.75,1.83-1.95,2.63-.36,1.39-.1,2.99.69,4.28,4.18,6.82,8.31,13.83,12.3,20.6l2.74,4.65c1.27,2.14,3.09,3.27,5.58,3.45,2.58-.04,4.45-1.03,5.71-3,.53-.83,1.06-1.67,1.59-2.51L67.63,2.67c1.06-2.51-1.91-3.53-3.28-1.83Z"/>
  </g>
</svg>
